<mxfile host="app.diagrams.net" agent="Mozilla/5.0 (X11; Linux x86_64) AppleWebKit/537.36 (KHTML, like Gecko) Chrome/139.0.0.0 Safari/537.36" version="28.1.2">
  <diagram name="Page-1" id="accurate-cache-architecture">
    <mxGraphModel dx="466" dy="798" grid="1" gridSize="10" guides="1" tooltips="1" connect="1" arrows="1" fold="1" page="1" pageScale="1" pageWidth="827" pageHeight="1169" math="0" shadow="0">
      <root>
        <mxCell id="0" />
        <mxCell id="1" parent="0" />
        <mxCell id="main-container" value="" style="rounded=0;whiteSpace=wrap;html=1;strokeColor=#333333;strokeWidth=2;" parent="1" vertex="1">
          <mxGeometry x="180" y="80" width="510" height="650" as="geometry" />
        </mxCell>
        <mxCell id="main-title" value="&lt;b&gt;&lt;font style=&quot;font-size: 16px;&quot;&gt;Architecture mémoire FastJit&lt;/font&gt;&lt;/b&gt;" style="text;html=1;align=center;verticalAlign=middle;whiteSpace=wrap;rounded=0;" parent="1" vertex="1">
          <mxGeometry x="280" y="40" width="300" height="25" as="geometry" />
        </mxCell>
        <mxCell id="mmap-zone" value="" style="rounded=0;whiteSpace=wrap;html=1;fillColor=#f5f5f5;strokeColor=#666666;fontColor=#333333;" parent="1" vertex="1">
          <mxGeometry x="200" y="120" width="460" height="580" as="geometry" />
        </mxCell>
        <mxCell id="cache-header" value="&lt;b&gt;&lt;font style=&quot;font-size: 14px;&quot;&gt;Cache Header&lt;/font&gt;&lt;/b&gt;&lt;br&gt;&lt;font style=&quot;font-size: 10px;&quot;&gt;cache_id, version&lt;br&gt;entry_count, next_offset&lt;/font&gt;" style="rounded=0;whiteSpace=wrap;html=1;fillColor=#ffe0b2;strokeColor=#d79b00;" parent="1" vertex="1">
          <mxGeometry x="220" y="130" width="420" height="50" as="geometry" />
        </mxCell>
        <mxCell id="entries-array" value="" style="rounded=0;whiteSpace=wrap;html=1;fillColor=#f8cecc;strokeColor=#b85450;" parent="1" vertex="1">
          <mxGeometry x="220" y="210" width="420" height="280" as="geometry" />
        </mxCell>
        <mxCell id="entries-title" value="&lt;b&gt;&lt;font style=&quot;font-size: 14px;&quot;&gt;Cache Entry Header&lt;/font&gt;&lt;/b&gt;&lt;div&gt;&lt;br&gt;&lt;/div&gt;" style="text;html=1;align=center;verticalAlign=middle;whiteSpace=wrap;rounded=0;" parent="1" vertex="1">
          <mxGeometry x="320" y="190" width="220" height="30" as="geometry" />
        </mxCell>
        <mxCell id="entry-0" value="&lt;font style=&quot;font-size: 11px;&quot;&gt;[0] key, offset, length, is_used, checksum&lt;/font&gt;" style="rounded=0;whiteSpace=wrap;html=1;fillColor=#bbdefb;strokeColor=#6c8ebf;" parent="1" vertex="1">
          <mxGeometry x="240" y="230" width="380" height="25" as="geometry" />
        </mxCell>
        <mxCell id="entry-1" value="&lt;font style=&quot;font-size: 11px;&quot;&gt;[1] key, offset, length, is_used, checksum&lt;/font&gt;" style="rounded=0;whiteSpace=wrap;html=1;fillColor=#bbdefb;strokeColor=#6c8ebf;" parent="1" vertex="1">
          <mxGeometry x="240" y="260" width="380" height="25" as="geometry" />
        </mxCell>
        <mxCell id="entry-2" value="&lt;font style=&quot;font-size: 11px;&quot;&gt;[2] key, offset, length, is_used, checksum&lt;/font&gt;" style="rounded=0;whiteSpace=wrap;html=1;fillColor=#bbdefb;strokeColor=#6c8ebf;" parent="1" vertex="1">
          <mxGeometry x="240" y="290" width="380" height="25" as="geometry" />
        </mxCell>
        <mxCell id="dots" value="&lt;font style=&quot;font-size: 16px;&quot;&gt;&lt;b&gt;...&lt;/b&gt;&lt;/font&gt;" style="text;html=1;align=center;verticalAlign=middle;whiteSpace=wrap;rounded=0;" parent="1" vertex="1">
          <mxGeometry x="410" y="325" width="60" height="30" as="geometry" />
        </mxCell>
        <mxCell id="entry-1023" value="&lt;font style=&quot;font-size: 11px;&quot;&gt;[...] key, offset, length, is_used, checksum&lt;/font&gt;" style="rounded=0;whiteSpace=wrap;html=1;fillColor=#bbdefb;strokeColor=#6c8ebf;" parent="1" vertex="1">
          <mxGeometry x="240" y="450" width="380" height="25" as="geometry" />
        </mxCell>
        <mxCell id="data-area" value="" style="rounded=0;whiteSpace=wrap;html=1;fillColor=#d5e8d4;strokeColor=#82b366;" parent="1" vertex="1">
          <mxGeometry x="220" y="544" width="420" height="150" as="geometry" />
        </mxCell>
        <mxCell id="data-title" value="&lt;b&gt;&lt;font style=&quot;font-size: 14px;&quot;&gt;Zone de données&lt;/font&gt;&lt;/b&gt;&lt;br&gt;&lt;font style=&quot;font-size: 11px;&quot;&gt;Graphes sérialisés consécutifs&lt;/font&gt;" style="text;html=1;align=center;verticalAlign=middle;whiteSpace=wrap;rounded=0;" parent="1" vertex="1">
          <mxGeometry x="320" y="514" width="220" height="30" as="geometry" />
        </mxCell>
        <mxCell id="serialized-1" value="&lt;font style=&quot;font-size: 12px;&quot;&gt;Serialized Graph 1&lt;/font&gt;" style="rounded=0;whiteSpace=wrap;html=1;fillColor=#fff2cc;strokeColor=#d6b656;" parent="1" vertex="1">
          <mxGeometry x="240" y="559" width="120" height="30" as="geometry" />
        </mxCell>
        <mxCell id="serialized-2" value="&lt;font style=&quot;font-size: 12px;&quot;&gt;Serialized Graph 2&lt;/font&gt;" style="rounded=0;whiteSpace=wrap;html=1;fillColor=#fff2cc;strokeColor=#d6b656;" parent="1" vertex="1">
          <mxGeometry x="370" y="559" width="120" height="30" as="geometry" />
        </mxCell>
        <mxCell id="serialized-3" value="&lt;font style=&quot;font-size: 12px;&quot;&gt;Serialized Graph 3&lt;/font&gt;" style="rounded=0;whiteSpace=wrap;html=1;fillColor=#fff2cc;strokeColor=#d6b656;" parent="1" vertex="1">
          <mxGeometry x="500" y="559" width="120" height="30" as="geometry" />
        </mxCell>
        <mxCell id="data-dots" value="&lt;font style=&quot;font-size: 14px;&quot;&gt;&lt;b&gt;...&lt;/b&gt;&lt;/font&gt;" style="text;html=1;align=center;verticalAlign=middle;whiteSpace=wrap;rounded=0;" parent="1" vertex="1">
          <mxGeometry x="420" y="608" width="60" height="30" as="geometry" />
        </mxCell>
        <mxCell id="arrow-1" value="" style="endArrow=classic;html=1;rounded=0;strokeColor=#d79b00;strokeWidth=2;exitX=0;exitY=0.5;exitDx=0;exitDy=0;entryX=0.5;entryY=1;entryDx=0;entryDy=0;" parent="1" edge="1" target="serialized-2">
          <mxGeometry width="50" height="50" relative="1" as="geometry">
            <mxPoint x="240" y="297.5" as="sourcePoint" />
            <mxPoint x="430" y="599" as="targetPoint" />
            <Array as="points">
              <mxPoint x="160" y="298" />
              <mxPoint x="160" y="615" />
              <mxPoint x="430" y="615" />
            </Array>
          </mxGeometry>
        </mxCell>
        <mxCell id="arrow-2" value="" style="endArrow=classic;html=1;rounded=0;strokeColor=#d79b00;strokeWidth=2;entryX=0.5;entryY=1;entryDx=0;entryDy=0;exitX=1;exitY=0.5;exitDx=0;exitDy=0;" parent="1" edge="1" target="serialized-3">
          <mxGeometry width="50" height="50" relative="1" as="geometry">
            <mxPoint x="620" y="327.5" as="sourcePoint" />
            <mxPoint x="560" y="599" as="targetPoint" />
            <Array as="points">
              <mxPoint x="720" y="328" />
              <mxPoint x="720" y="615" />
              <mxPoint x="640" y="615" />
              <mxPoint x="560" y="615" />
            </Array>
          </mxGeometry>
        </mxCell>
        <mxCell id="arrow-label-1" value="&lt;font style=&quot;font-size: 10px;&quot;&gt;offset&lt;/font&gt;" style="text;html=1;align=center;verticalAlign=middle;whiteSpace=wrap;rounded=0;fillColor=#fff2cc;strokeColor=#d6b656;" parent="1" vertex="1">
          <mxGeometry x="130" y="390" width="40" height="20" as="geometry" />
        </mxCell>
        <mxCell id="arrow-label-2" value="&lt;font style=&quot;font-size: 10px;&quot;&gt;offset&lt;/font&gt;" style="text;html=1;align=center;verticalAlign=middle;whiteSpace=wrap;rounded=0;fillColor=#fff2cc;strokeColor=#d6b656;" parent="1" vertex="1">
          <mxGeometry x="700" y="390" width="40" height="20" as="geometry" />
        </mxCell>
      </root>
    </mxGraphModel>
  </diagram>
</mxfile>
